<svg xmlns="http://www.w3.org/2000/svg" width="510" height="505" viewBox="0 0 510 505"><g fill="none" fill-rule="evenodd"><path fill="#ED6E79" fill-rule="nonzero" d="M509.667,252.301 C509.667,391.641 395.578,504.602 254.835,504.602 C114.093,504.602 0,391.641 0,252.301 C0,112.957 114.093,0 254.835,0 C395.578,0 509.667,112.957 509.667,252.301 Z"/><path fill="#000" fill-rule="nonzero" d="M403.453,368.223 C399.421,370.785 395.136,373.328 390.636,375.82 C368.183,388.277 344.421,397.418 320.042,403.25 C277.203,413.481 232.464,413.481 189.625,403.25 C165.246,397.418 141.484,388.277 119.027,375.82 C114.531,373.328 110.25,370.785 106.218,368.219 C76.253,349.188 59.929,328.848 69.593,315.238 C83.07,296.25 93.636,273.625 100.003,258.375 C111.64,230.481 130.785,206.262 155.675,189.106 C171.351,178.305 188.195,170.707 205.433,165.738 C212.449,163.711 219.535,162.117 226.64,160.93 C231.996,160.031 237.355,159.359 242.699,158.895 C246.757,158.547 250.808,158.313 254.835,158.199 C259.367,158.332 263.917,158.602 268.48,159.035 C272.863,159.445 277.25,159.996 281.636,160.707 C290.214,162.074 298.781,164.031 307.23,166.633 C323.425,171.598 339.226,178.938 353.996,189.106 C378.886,206.262 398.031,230.481 409.667,258.375 C416.035,273.625 426.601,296.25 440.078,315.238 C449.738,328.848 433.417,349.188 403.453,368.223"/><path fill="#000" fill-rule="nonzero" d="M102.417,227.039 C104.667,231.926 107.25,236.856 110.191,241.797 C151.152,310.625 194.964,171.34 194.964,171.34 C194.964,171.34 145.019,116.266 112.023,107.992 C107.781,106.93 103.484,107.906 100.195,110.324 C97.82,112.07 95.972,114.574 95.046,117.598 C89.304,136.395 80.601,179.77 102.417,227.039 M407.253,227.039 C405.003,231.926 402.421,236.856 399.476,241.797 C358.515,310.625 314.703,171.34 314.703,171.34 C314.703,171.34 364.648,116.266 397.644,107.992 C401.89,106.93 406.187,107.906 409.472,110.324 C411.847,112.07 413.695,114.574 414.621,117.598 C420.367,136.395 429.066,179.77 407.253,227.039"/><path fill="#FFF" fill-rule="nonzero" d="M284.714,293.664 C284.714,293.664 294.148,247.613 330.21,244.84 C366.269,242.066 381.25,275.356 381.804,280.902 C382.359,286.449 371.261,312.527 337.421,319.184 C303.578,325.84 282.988,299.949 284.714,293.664 M224.953,293.664 C224.953,293.664 215.523,247.613 179.46,244.84 C143.398,242.066 128.417,275.356 127.863,280.902 C127.308,286.449 138.406,312.527 172.25,319.184 C206.089,325.84 226.679,299.949 224.953,293.664"/><path fill="#000" fill-rule="nonzero" d="M360.722,283.356 C360.722,300.504 346.816,314.41 329.667,314.41 C312.515,314.41 298.613,300.504 298.613,283.356 C298.613,266.203 312.515,252.301 329.667,252.301 C346.816,252.301 360.722,266.203 360.722,283.356 M211.058,283.356 C211.058,300.504 197.152,314.41 180.003,314.41 C162.851,314.41 148.949,300.504 148.949,283.356 C148.949,266.203 162.851,252.301 180.003,252.301 C197.152,252.301 211.058,266.203 211.058,283.356"/><path fill="#FFF" fill-rule="nonzero" d="M297.531,341.981 C292.222,348.707 283.226,352.367 274.718,351.629 C270.316,351.246 266.359,349.129 263.285,345.992 C261.636,344.313 260.269,342.246 259.503,340.012 C258.601,337.391 258.71,334.586 257.917,331.953 C257.55,330.738 256.003,329.973 254.835,330.523 C253.667,329.973 252.117,330.738 251.753,331.953 C250.957,334.586 251.066,337.391 250.167,340.012 C249.398,342.246 248.031,344.313 246.386,345.992 C243.308,349.129 239.355,351.246 234.949,351.629 C226.445,352.367 217.445,348.707 212.14,341.981 C210.5,339.898 206.785,341.168 207.691,344.031 C211.367,355.676 227.917,361.574 239.097,359.027 C245.25,357.629 251.117,353.895 254.835,348.723 C258.554,353.895 264.421,357.629 270.574,359.027 C281.753,361.574 298.3,355.676 301.98,344.031 C302.882,341.168 299.171,339.898 297.531,341.981"/><path fill="#FFF" fill-rule="nonzero" d="M267.019,320.27 C264.964,317.586 260.437,317.645 257.402,317.617 C256.585,317.609 255.722,317.586 254.832,317.586 C253.91,317.586 253.046,317.609 252.23,317.617 C249.195,317.645 244.667,317.586 242.613,320.27 C240.058,323.598 242.554,327.871 244.949,330.457 C247.621,333.336 251.015,335.395 254.816,334.781 C258.617,335.395 262.011,333.336 264.687,330.457 C267.082,327.871 269.578,323.598 267.019,320.27 M107.894,224.289 C122.859,205.621 143.062,191.973 125.121,144.613 C118.207,126.356 111.328,118.301 105.582,114.008 C103.312,115.676 101.742,116.898 100.859,119.785 C95.375,137.731 87.066,179.152 107.894,224.289"/><path fill="#FFF" fill-rule="nonzero" d="M125.121,144.613 C118.207,126.356 108.540248,114.008 105.582,114.008 C102.969846,114.008 101.742,116.898 100.859,119.785 C95.375,137.731 87.066,179.152 107.894,224.289 C122.859,205.621 143.062,191.973 125.121,144.613 Z M384.55,144.613 C391.464,126.356 401.128228,114.008 404.089,114.008 C406.270884,114.008 407.925,116.898 408.812,119.785 C414.296,137.731 422.605,179.152 401.773,224.289 C386.808,205.621 366.609,191.973 384.55,144.613 Z"/><path fill="#000" fill-rule="nonzero" d="M81.738,338.836 C22.871,391.727 93.417,351.918 93.417,351.918 L81.437,338.652 L81.738,338.836 Z M427.929,338.836 C486.8,391.727 416.25,351.918 416.25,351.918 L428.23,338.652 L427.929,338.836 Z M106.699,355.297 C47.828,408.188 124.664,364.434 124.664,364.434 L106.699,355.297 Z M402.968,355.297 C461.839,408.188 385.003,364.434 385.003,364.434 L402.968,355.297 Z"/><path fill="#FFF" fill-rule="nonzero" d="M216.792,386.843518 C214.417,386.832 212.214,387.258 210.277,388.234 C202.976,391.93 202.242,407.992 202.324,415.731 C202.242,423.465 202.976,439.527 210.277,443.223 C222.66,449.484 245.972,433.016 254.835,426.152 C255.035,426.309 255.226,426.457 255.445,426.625 C263.246,432.602 280.414,444.566 292.878,444.61722 C295.253,444.625 297.457,444.203 299.39,443.223 C306.695,439.527 307.429,423.465 307.343,415.731 C307.425,407.992 306.695,391.93 299.39,388.234 C297.457,387.258 295.25,386.832 292.878,386.843518 C292.617,386.843518 292.355,386.852 292.093,386.863 C279.703,387.387 263.085,398.981 255.445,404.836 C255.214,405.008 255.046,405.145 254.835,405.309 C247.375,399.531 229.617,386.891 216.792,386.843518 Z"/><path stroke="#000" stroke-width="4.468" d="M216.792,386.843518 C214.417,386.832 212.214,387.258 210.277,388.234 C202.976,391.93 202.242,407.992 202.324,415.731 C202.242,423.465 202.976,439.527 210.277,443.223 C222.66,449.484 245.972,433.016 254.835,426.152 C255.035,426.309 255.226,426.457 255.445,426.625 C263.246,432.602 280.414,444.566 292.878,444.61722 C295.253,444.625 297.457,444.203 299.39,443.223 C306.695,439.527 307.429,423.465 307.343,415.731 C307.425,407.992 306.695,391.93 299.39,388.234 C297.457,387.258 295.25,386.832 292.878,386.843518 C292.617,386.843518 292.355,386.852 292.093,386.863 C279.703,387.387 263.085,398.981 255.445,404.836 C255.214,405.008 255.046,405.145 254.835,405.309 C247.375,399.531 229.617,386.891 216.792,386.843518 Z"/></g></svg>